/* XPM */
static char * mandrakeupdate_xpm[] = {
"16 16 92 2",
"  	c None",
". 	c #122450",
"+ 	c #2D3D67",
"@ 	c #B8BCDB",
"# 	c #AEB3D2",
"$ 	c #6B759A",
"% 	c #293449",
"& 	c #51503B",
"* 	c #2C3C66",
"= 	c #546188",
"- 	c #5F6B91",
"; 	c #A3A9CA",
"> 	c #6F7A9E",
", 	c #605B36",
"' 	c #F0AF11",
") 	c #85712C",
"! 	c #23335E",
"~ 	c #99A0C1",
"{ 	c #303F69",
"] 	c #C2961B",
"^ 	c #FFB310",
"/ 	c #786731",
"( 	c #3C4A73",
"_ 	c #4D5B82",
": 	c #BF8E20",
"< 	c #93772A",
"[ 	c #DFAC11",
"} 	c #FFB90C",
"| 	c #B18922",
"1 	c #635937",
"2 	c #8B92B4",
"3 	c #434143",
"4 	c #AC8126",
"5 	c #856E2E",
"6 	c #232F4B",
"7 	c #E4A515",
"8 	c #2A3349",
"9 	c #756D62",
"0 	c #657096",
"a 	c #4E5263",
"b 	c #5D513C",
"c 	c #FFB50F",
"d 	c #987D26",
"e 	c #24314A",
"f 	c #383D44",
"g 	c #444342",
"h 	c #5D5E69",
"i 	c #455174",
"j 	c #9F792A",
"k 	c #FFB60E",
"l 	c #A58125",
"m 	c #534F3D",
"n 	c #373D44",
"o 	c #5C553A",
"p 	c #343947",
"q 	c #6A7290",
"r 	c #A6ABCC",
"s 	c #1E2C50",
"t 	c #F7AE12",
"u 	c #DDA415",
"v 	c #635B36",
"w 	c #675F34",
"x 	c #E5A317",
"y 	c #28324D",
"z 	c #404C71",
"A 	c #776135",
"B 	c #E4A714",
"C 	c #57513B",
"D 	c #9E7E27",
"E 	c #796234",
"F 	c #F2AB14",
"G 	c #C5991B",
"H 	c #253149",
"I 	c #1F2D4C",
"J 	c #5F5739",
"K 	c #615639",
"L 	c #D8A018",
"M 	c #363B45",
"N 	c #575438",
"O 	c #9E7D27",
"P 	c #24304B",
"Q 	c #2C3647",
"R 	c #5B543A",
"S 	c #706332",
"T 	c #15264F",
"U 	c #132550",
"V 	c #6B5C36",
"W 	c #1F2C4C",
"X 	c #605539",
"Y 	c #1E2C4C",
"Z 	c #17274E",
"` 	c #1B2B4D",
"  . . . . .                     ",
"  + @ @ # $ .     % &           ",
"  * = - ; @ > . , ' ) .         ",
"      . ! ~ @ { ] ^ / .         ",
"    . .   ( @ _ : ^ < .         ",
"  . [ } | 1 ~ 2 3 4 5 .         ",
"  . 6 7 8 9 0 @ a b c d e .     ",
"    . f g h @ @ i j ^ ^ k l m n ",
"      . o p q r s t ^ ^ ^ ^ u v ",
"        w x y z A ^ ^ ^ B C .   ",
"        D ^ x E F ^ ^ G H       ",
"      I c ^ ^ ^ ^ ^ ^ J         ",
"    . K ^ L M N O ^ ^ P         ",
"    Q R S T .   U V ^ W         ",
"    . . .         U X Y         ",
"                    Z `         "};
