/* XPM */
static char * mandrakeupdate_xpm[] = {
"48 48 90 1",
" 	c None",
".	c #122450",
"+	c #192B56",
"@	c #9AA1C2",
"#	c #B8BCDB",
"$	c #AEB3D2",
"%	c #848DB0",
"&	c #5B678D",
"*	c #273761",
"=	c #21325C",
"-	c #A9AECE",
";	c #7A83A7",
">	c #2C3747",
",	c #4D4E3C",
"'	c #303F69",
")	c #B5B9D8",
"!	c #505D84",
"~	c #B58D20",
"{	c #F0B010",
"]	c #2F3F69",
"^	c #3C4A73",
"/	c #46547B",
"(	c #657096",
"_	c #615937",
":	c #FFB50F",
"<	c #FFB60E",
"[	c #3A4043",
"}	c #8F96B8",
"|	c #6F7A9E",
"1	c #263249",
"2	c #F0AF11",
"3	c #FFB310",
"4	c #51513B",
"5	c #A68424",
"6	c #89722C",
"7	c #99A0C1",
"8	c #1C2E59",
"9	c #514F3C",
"0	c #977B28",
"a	c #283349",
"b	c #E1A615",
"c	c #C4961C",
"d	c #31416A",
"e	c #56523A",
"f	c #FFB80D",
"g	c #A3A9CA",
"h	c #B58922",
"i	c #565439",
"j	c #97742C",
"k	c #6B6034",
"l	c #977C27",
"m	c #5C513C",
"n	c #FFB90C",
"o	c #D39E18",
"p	c #5C5738",
"q	c #45483F",
"r	c #3E3F44",
"s	c #F0AA14",
"t	c #A67D28",
"u	c #C48F20",
"v	c #212D4C",
"w	c #B58624",
"x	c #D39D19",
"y	c #4D4840",
"z	c #896C30",
"A	c #49493F",
"B	c #F0AD12",
"C	c #585149",
"D	c #7A6334",
"E	c #36405D",
"F	c #6B5A38",
"G	c #2B3655",
"H	c #E1A913",
"I	c #7A6930",
"J	c #494B3E",
"K	c #3A3F51",
"L	c #4A536F",
"M	c #E1A714",
"N	c #2A3548",
"O	c #E1A118",
"P	c #454640",
"Q	c #363E44",
"R	c #49484D",
"S	c #FFBB0B",
"T	c #414441",
"U	c #D3981C",
"V	c #716432",
"W	c #F0B50D",
"X	c #615A36",
"Y	c #615C35",
"                                                ",
"     .......                                    ",
"    +@###$%&*..                                 ",
"   =-########;*.           >,.                  ",
"  ')##########$!.         .~{.                  ",
" ]^^^/(%$#######;.       ._:<[                  ",
" ........!}######|.      12334                  ",
"         ..!$#####/.    .53336.                 ",
"           .*7####$8   .9:3330.                 ",
"            .87####(.  ab3333c.                 ",
"             .d$###$8..033333{.                 ",
"              .(####!.e:33333f1                 ",
"               .g###%.h3333333i                 ",
"    ....       .&####.j3333333k                 ",
"   .lc56,[.... .8####^m33333336.                ",
"   .l3333<no~6pq.%###&r3333ss3c.                ",
"    .c3333tu333:v&###|.333wrs3o.                ",
"     1x333svyu33md###}.ssm8z33f1                ",
"     .AB333w^&Cuj.###g.DE}Es3335..              ",
"      ._:333F}$(G.7###.(#%z33333HIJ...          ",
"       .6333sK$#$(}###7##Ls3333333:{5k[..       ",
"        .5333u/#########}D333333333333<M5pa..   ",
"         Nx333D%########^O3333333333333333folP. ",
"         .QB33sR$######}F33333333333333333333S. ",
"          .T<33U^######^O333333333333333333:cP. ",
"           .I333z|####gF33333333333333333:ce.   ",
"            .n333Rg###!O333333333333333:ce.     ",
"            .n333u^##gy33333333333333:c9.       ",
"           .9<3333j|#!u333333333333:c9..        ",
"           .c333333y%y33333333333<c9..          ",
"          .9:333333Ovu33333333333I..            ",
"          .c33333333u33333333333o.              ",
"         .9:333333333333333333336.              ",
"         .c3333333333333333333330.              ",
"        .V3333333333333333333333c.              ",
"        .M3333333333<<3333333333c.              ",
"       .V33333333:MI[q~:33333333c.              ",
"       .M33333325q..  .533333333c.              ",
"      .k3333<ckN.      .53333333{.              ",
"      .M33{0Q..         .5333333n.              ",
"      .W~X..             .533333n.              ",
"      ....                .53333n.              ",
"                           .5333f1              ",
"                            .5333Y              ",
"                             .533Y              ",
"                              .53Y              ",
"                               .4.              ",
"                                                "};
