/* XPM */
static char * mandrakeupdate_xpm[] = {
"32 32 130 2",
"  	c None",
". 	c #122450",
"+ 	c #21325D",
"@ 	c #B8BCDB",
"# 	c #99A0C1",
"$ 	c #657096",
"% 	c #1C2E59",
"& 	c #23335E",
"* 	c #B2B7D6",
"= 	c #AEB3D2",
"- 	c #505D84",
"; 	c #D3A216",
"> 	c #253249",
", 	c #3C4A73",
"' 	c #283863",
") 	c #31416A",
"! 	c #6F7A9E",
"~ 	c #A3A9CA",
"{ 	c #90772A",
"] 	c #FFB310",
"^ 	c #383D44",
"/ 	c #46547B",
"( 	c #615937",
"_ 	c #FFB60E",
": 	c #4A493F",
"< 	c #D39E18",
"[ 	c #C4961C",
"} 	c #273761",
"| 	c #89732B",
"1 	c #E1A714",
"2 	c #5B678D",
"3 	c #212F4B",
"4 	c #F0AD12",
"5 	c #FFB90C",
"6 	c #303946",
"7 	c #14254F",
"8 	c #F0B70C",
"9 	c #474740",
"0 	c #14264F",
"a 	c #1B2B4D",
"b 	c #C48F20",
"c 	c #1D2B4D",
"d 	c #756631",
"e 	c #FFB50F",
"f 	c #F0AA14",
"g 	c #B58922",
"h 	c #806632",
"i 	c #BE8C22",
"j 	c #9D782A",
"k 	c #B58624",
"l 	c #F2AB14",
"m 	c #1E2C4C",
"n 	c #D3981C",
"o 	c #344062",
"p 	c #2E364D",
"q 	c #8F702E",
"r 	c #4E4940",
"s 	c #3A4155",
"t 	c #22325A",
"u 	c #BC8A22",
"v 	c #E1A615",
"w 	c #343C45",
"x 	c #B08A21",
"y 	c #2D354B",
"z 	c #6B769A",
"A 	c #7C819A",
"B 	c #36405D",
"C 	c #A0A6C7",
"D 	c #212E4E",
"E 	c #24304B",
"F 	c #2A3448",
"G 	c #414640",
"H 	c #D39D19",
"I 	c #CB941E",
"J 	c #1D2C53",
"K 	c #AFB4D3",
"L 	c #3D4A6E",
"M 	c #8B6D2F",
"N 	c #F0AF11",
"O 	c #745F35",
"P 	c #434F73",
"Q 	c #9AA1C2",
"R 	c #202D4F",
"S 	c #F0B010",
"T 	c #B58E1F",
"U 	c #3A3F43",
"V 	c #53503C",
"W 	c #FAB011",
"X 	c #2C344B",
"Y 	c #818AAC",
"Z 	c #384770",
"` 	c #836831",
" .	c #1D2C52",
"..	c #202E51",
"+.	c #615A37",
"@.	c #7B6F2C",
"#.	c #6E5B37",
"$.	c #3B486C",
"%.	c #3B4972",
"&.	c #876B30",
"*.	c #2F364A",
"=.	c #667197",
"-.	c #89742B",
";.	c #30384F",
">.	c #9B762B",
",.	c #927B27",
"'.	c #AC8723",
").	c #4D4E3C",
"!.	c #776532",
"~.	c #87702D",
"{.	c #B58D20",
"].	c #3A3F44",
"^.	c #2E3747",
"/.	c #E4A714",
"(.	c #9D7D27",
"_.	c #997D27",
":.	c #25314A",
"<.	c #97762B",
"[.	c #565439",
"}.	c #FFB80D",
"|.	c #A68424",
"1.	c #7E6E2D",
"2.	c #1A294E",
"3.	c #9F7B29",
"4.	c #897629",
"5.	c #1B2A4D",
"6.	c #A37E27",
"7.	c #B08524",
"8.	c #18284E",
"9.	c #B08B21",
"                                                                ",
"      . . . . . . . .                                           ",
"    . + @ @ @ @ # $ % . .             . .                       ",
"    & * @ @ @ @ @ @ = - . .         . ; >                       ",
"    , ' ) , ! ~ @ @ @ @ - . .     . { ] ^                       ",
"          . . . - = @ @ @ / .     ( _ ] :                       ",
"              . . % # @ @ ~ % . . < ] ] [ .                     ",
"                  . } = @ @ - . | ] ] ] 1 .                     ",
"                    . 2 @ @ # 3 4 ] ] ] 5 .                     ",
"      . 6 . . .       . = @ @ % ] ] ] ] ] 7                     ",
"      . 8 5 1 [ 9 0 a . ! @ @ , b ] ] ] ] c                     ",
"        d e ] ] b f ] g , @ @ $ h i j k l m                     ",
"        . | ] ] n o p q . @ @ ! r s t u ] v w                   ",
"          . x ] ] y z A B # @ # ! C D l ] ] v E F . .           ",
"            G H ] I J K @ = @ @ @ L M ] ] ] ] ] ] 5 [ . . . .   ",
"              6 N ] O P @ @ @ @ Q R l ] ] ] ] ] ] ] ] ] ] S T U ",
"                V _ W X Y @ @ @ Z ` ] ] ] ] ] ] ] ] ] ] ] e [ U ",
"                . | ] I  .K @ Q ..W ] ] ] ] ] ] ] ] ] e [ +..   ",
"                  @.] ] #.$.@ %.&.] ] ] ] ] ] ] ] ] < +..       ",
"                . { ] ] W *.=...W ] ] ] ] ] ] ] 1 -..           ",
"                6 N ] ] ] I ;.>.] ] ] ] ] ] e ,..               ",
"              . x ] ] ] ] ] ] ] ] ] ] ] ] ] '..                 ",
"              )._ ] ] ] ] ] ] ] ] ] ] ] ] ] !..                 ",
"            . x ] ] ] ] ] ] ] ] ] ] ] ] ] ] ~..                 ",
"            )._ ] ] ] ] _ {.].^./.] ] ] ] ] (..                 ",
"          . x ] ] ] 1 _.)..     :.<.] ] ] ] [ .                 ",
"          [._ }.|.1..             2.3.] ] ] < .                 ",
"          G 4.w .                   5.6.] ] 5 .                 ",
"                                      2.7.] 5 .                 ",
"                                        8.7.5 .                 ",
"                                          2.9..                 ",
"                                            . .                 "};
