/* XPM */
static char *magick[] = {
/* columns rows colors chars-per-pixel */
"32 32 254 2",
"   c #1c123f",
".  c #211e3d",
"X  c #343431",
"o  c #1a0867",
"O  c #201647",
"+  c #221b41",
"@  c #251e44",
"#  c #27155d",
"$  c #2b1d64",
"%  c #281774",
"&  c #2f1e77",
"*  c #2c2c4c",
"=  c #2a2358",
"-  c #302b5a",
";  c #373b59",
":  c #2f2460",
">  c #312568",
",  c #312271",
"<  c #312076",
"1  c #352474",
"2  c #332278",
"3  c #342378",
"4  c #342379",
"5  c #35247a",
"6  c #352679",
"7  c #35267b",
"8  c #36257a",
"9  c #362778",
"0  c #36267a",
"q  c #34247c",
"w  c #36257d",
"e  c #372876",
"r  c #38277b",
"t  c #38287c",
"y  c #39287c",
"u  c #39287d",
"i  c #39297c",
"p  c #39297d",
"a  c #38287f",
"s  c #3a297d",
"d  c #3a287f",
"f  c #3a2a7d",
"g  c #3a2b7d",
"h  c #3b2b7d",
"j  c #3a2a7f",
"k  c #3b2b7f",
"l  c #3b2c7f",
"z  c #3c2b7e",
"x  c #3f3176",
"c  c #3e404f",
"v  c #3d425c",
"b  c #5c332b",
"n  c #772513",
"m  c #733527",
"M  c #4f3641",
"N  c #41337b",
"B  c #453a70",
"V  c #66413f",
"C  c #404859",
"Z  c #4f515a",
"A  c #40426c",
"S  c #4d5068",
"D  c #4c5574",
"F  c #534b78",
"G  c #585a60",
"H  c #505b77",
"J  c #535d7a",
"K  c #6e5c5c",
"L  c #7b4b43",
"P  c #77554e",
"I  c #696a6e",
"U  c #696b70",
"Y  c #747578",
"T  c #3a2a80",
"R  c #3c2b81",
"E  c #3d2e80",
"W  c #423284",
"Q  c #42358c",
"!  c #473883",
"~  c #4d3f87",
"^  c #4c3d8b",
"/  c #4e4083",
"(  c #544787",
")  c #51428c",
"_  c #564b85",
"`  c #534a95",
"'  c #5c4e93",
"]  c #5a4d99",
"[  c #545f84",
"{  c #565198",
"}  c #5b6383",
"|  c #596389",
" . c #5e678e",
".. c #5e6890",
"X. c #5e7295",
"o. c #665a95",
"O. c #675a99",
"+. c #695e96",
"@. c #6b5f9a",
"#. c #63698c",
"$. c #626591",
"%. c #616b93",
"&. c #616c98",
"*. c #6d6495",
"=. c #6b7187",
"-. c #72689c",
";. c #6f63a1",
":. c #6c78a7",
">. c #6e75b3",
",. c #7165a4",
"<. c #7a6ea8",
"1. c #7e74aa",
"2. c #787da3",
"3. c #717cb3",
"4. c #767fb9",
"5. c #7781bb",
"6. c #7c80b7",
"7. c #7a85be",
"8. c #7d8bbe",
"9. c #7988c0",
"0. c #7d8bc1",
"q. c #7e8dc3",
"w. c #7d8dc5",
"e. c #94321b",
"r. c #b93a19",
"t. c #a23f27",
"y. c #8c4234",
"u. c #ba4c34",
"i. c #864f43",
"p. c #8c5758",
"a. c #985749",
"s. c #867d7c",
"d. c #9b7772",
"f. c #ac5441",
"g. c #af7476",
"h. c #bd796a",
"j. c #cd735f",
"k. c #ef6b4b",
"l. c #827b9a",
"z. c #957c97",
"x. c #837ab0",
"c. c #e4836e",
"v. c #e18c79",
"b. c #8c8b8c",
"n. c #85809e",
"m. c #8a849e",
"M. c #8e8c95",
"N. c #919095",
"B. c #93919a",
"V. c #9e9694",
"C. c Gray60",
"Z. c #9d9b9b",
"A. c #9e9d9f",
"S. c #8c84ab",
"D. c #838abd",
"F. c #8b82b3",
"G. c #8a90a9",
"H. c #928ca9",
"J. c #938ab7",
"K. c #9699be",
"L. c #a69b98",
"P. c #b79f9a",
"I. c #a29bba",
"U. c #a2a4ab",
"Y. c #a6a8af",
"T. c #a9a3a1",
"R. c #a7a1b9",
"E. c #aaa6b8",
"W. c #a9aab1",
"Q. c #aba8b5",
"!. c #aaacb3",
"~. c #aaadb4",
"^. c #adafb7",
"/. c #ababbb",
"(. c #adb0b8",
"). c #b6a8a5",
"_. c #b0b3b8",
"`. c #808ec2",
"'. c #808ec3",
"]. c #808fc2",
"[. c #818fc3",
"{. c #808fc4",
"}. c #848cc0",
"|. c #8090c5",
" X c #8090c7",
".X c #8291c4",
"XX c #8291c5",
"oX c #8291c7",
"OX c #8292c5",
"+X c #8794c6",
"@X c #8292c9",
"#X c #8492c9",
"$X c #8493cc",
"%X c #8695cd",
"&X c #8991c6",
"*X c #8995c8",
"=X c #8a9ad3",
"-X c #9097c6",
";X c #979fc1",
":X c #929acd",
">X c #9f97c1",
",X c #9b9ac2",
"<X c #9ba6cd",
"1X c #a39cc3",
"2X c #a1acd3",
"3X c #a3acd2",
"4X c #a3add5",
"5X c #a5add3",
"6X c #a5afd5",
"7X c #a5afd8",
"8X c #aeb3c9",
"9X c #a5b0d5",
"0X c #a7b2dc",
"qX c #a9b2d6",
"wX c #aab4dd",
"eX c #b2afc5",
"rX c #b5b2c0",
"tX c #b7b2cb",
"yX c #bfbdc4",
"uX c #b8b2d0",
"iX c #bdb8d3",
"pX c #afb9e4",
"aX c #bac1de",
"sX c #c28c80",
"dX c #cb9b90",
"fX c #c8a29a",
"gX c #dba396",
"hX c #ceb2ab",
"jX c #e39786",
"kX c #e9a89a",
"lX c #f5a695",
"zX c #eeb3a6",
"xX c #c1bed1",
"cX c #c5c4cc",
"vX c #c5c0d5",
"bX c #c7c3d8",
"nX c #cbc7dc",
"mX c #cac8d2",
"MX c #cdccd1",
"NX c #d0ced8",
"BX c #d5d3db",
"VX c #c1c4e2",
"CX c #d9d7e4",
"ZX c #e0e0dc",
"AX c #e4e3e5",
"SX c #e3e0e9",
"DX c #e8e6eb",
"FX c #e9eae4",
"GX c #ededec",
"HX c #f1eff9",
"JX c #f3f2f2",
"KX c #fcfef3",
"LX c Gray99",
"PX c None",
/* pixels */
"PXPXPXPXPXPXPXPXPXPXPXPXPXPXPXPXPXPXPXPXPXPXPXPXPXPXPXPXPXPXPXPX",
"PXPXPXPXPXPXPXPXPXPXPXA.).hXgXjXv.v.v.jXgXfXP.L.PXPXPXPXPXPXPXPX",
"PXPXPXPXPXPXPXPXPXT.hXgXh.p.L L P P P L i.a.j.v.dXV.PXPXPXPXPXPX",
"PXPXPXPXPXPXPXA.hXgXy.b K s.b.PXPXPXPXPXb.s.K m u.c.sXV.PXPXPXPX",
"PXPXPXPXPXPX).zXf.b b.PXPXPXPXPXPXPXPXPXPXPXPXPXs.t.k.j.V.PXPXPX",
"PXPXPXPXPX).lXt.K A.!._.(.(.^.~.W.W.W.!.(._.(._.U.d.e.r.h.Y.~.U.",
"PXPXPXPXL.kXu.V K.wX9X2X2X2X2X2X4X4X7X0X4X;XG.U =.X.p.r.m <XVXF.",
"PXPXPXZ.fXk.n B Q 3.w.9.9.9.9.0.D.9.&.[ D D &.3.9.=Xz.L l.F.' z ",
"PXG.Q.eXg.m M ~ ` 6.}.D.D.0.&X2.X S #.3.-X=X:X:X*X&X,Xx.] 6 2 y ",
"PXY.aXqX<X<X9XwXqX2X2X2X2X5X7X;X} 2XpXwX2X2X6X<X$.' ) 6 2 y y T ",
"PX(.*X9.|.@X|.|.[.q.q.q.w.q.0.{.=X{.0.9.0.0.$XJ = ` 3 y y y y l ",
"A.8Xq.}.[.[.[.[.[.[.[.[.[.[.[.[.q.[.[.[.[.|.|.v e 4.W y l E T 1 ",
"(.=X0.[.[.[.[.[.[.[.[.[.[.[.[.[.[.[.[.[.[.#X:.- y 7.{ y y $ O . ",
"8X+Xq.[.[.[.[.[.[.[.[.[.[.[.[.[.[.[.[.[.{.%XH > y 9.>.#   * | | ",
"wX$X%X%X%X%X%X%X%X%X%X%X%X%X%X%X%X%X%X%X=X8.; 1 y 5.[.A | [.=X%.",
"#.[ D H H H H H H H H H H H H H H H H H J S - y e 4.|.|.%X#X#X..",
"Y U F : : : : : : : : : : : : : : : : : : = e y t 5.|.{.[.[.#X .",
"PXN.;.R y T y l T y l y y T y y y y y T y E T y r 4.|.[.[.{.#X .",
"PXB.+.l y y y y y y l y y l y l l y y l y y y y r 4.|.[.[.{.#X .",
"PXB.+.l y l l y y l y l y y l y y l y y l y y y r 4.|.[.[.{.#X .",
"PXB.+.y y y y y y y y l y y y y y l y y l y y y r 4.|.[.[.{.#X .",
"PXB.+.y y y y y y l y y y y y l y y y y y y y y r 4.|.[.[.{.#X .",
"PXB.+.l y 3 r y 6 2 y 6 r 6 < y 6 6 y l t 6 6 y r 4.|.[.[.{.#X .",
"PXB.+.y 2 F.iXtXuX-.6 J.tXiXF.q x.iX1.& y >XiX' 2 4.|.[.[.{.#X .",
"PXB.+.6 E CXE.' CXcX~ DXH.>XLXo.CXGXI.o <.LXFX( 3 4.|.[.[.{.#X .",
"PXB.+.3 ^ DX-.% tXm.' GX! ,.BX;.CX/.R.3 vXbXyXN 6 4.|.[.[.{.#X .",
"PXB.+.< ;.GXcXSXNX, x.JXxXMX+.;.mXF.xXF.R.1XrX6 r 4.|.[.[.{.#X .",
"PXB.+.< >XNXx J.ZXx uXrX_ F % 1XE.O.HXNX( nXH.< r 4.|.[.[.|.=X%.",
"PXB.o.6 vXQ.o <.ZXB BXl.% & l nXl.] KXm.! AX*.& y 4.|.|.%X|.:.v ",
"PXB.o.W S.*.% O.n./ H._ q y W H.( ^ H.! ^ H./ q y 7.%X8...C Z s.",
"PXB.@.E q q l y q T q y R T R q T T q y T q T T R :.} c G s.PXPX",
"PXM.B + @ @ @ @ @ @ @ @ @ @ @ @ @ @ @ @ @ @ @ @ + c I b.PXPXPXPX"
};
