/* XPM */
static char *magick[] = {
/* columns rows colors chars-per-pixel */
"48 48 254 2",
"   c #030407",
".  c #160d34",
"X  c #18132c",
"o  c #1a1530",
"O  c #1c133f",
"+  c #211e3b",
"@  c #351b3c",
"#  c #282938",
"$  c #1c096d",
"%  c #231652",
"&  c #210f6d",
"*  c #25146c",
"=  c #241370",
"-  c #281770",
";  c #2c1b71",
":  c #2c1a77",
">  c #2f1e76",
",  c #292a47",
"<  c #2f2e55",
"1  c #2f3440",
"2  c #2e3249",
"3  c #30285d",
"4  c #373944",
"5  c #343b4c",
"6  c #383e52",
"7  c #312665",
"8  c #302268",
"9  c #322668",
"0  c #34276e",
"q  c #322274",
"w  c #332571",
"e  c #342473",
"r  c #342672",
"t  c #362675",
"y  c #322279",
"u  c #34237a",
"i  c #342478",
"p  c #35257a",
"a  c #36267b",
"s  c #37267b",
"d  c #37277b",
"f  c #372871",
"g  c #372877",
"h  c #382b71",
"j  c #39287c",
"k  c #39297c",
"l  c #39297d",
"z  c #39287f",
"x  c #3a297f",
"c  c #3a2a7c",
"v  c #3a2a7d",
"b  c #3a2b7c",
"n  c #3a2b7d",
"m  c #3b2a7c",
"M  c #3b2a7d",
"N  c #3b2b7d",
"B  c #3a2a7e",
"V  c #3b2c7c",
"C  c #3e2f7a",
"Z  c #3c2c7e",
"A  c #3c435b",
"S  c #4b1a0e",
"D  c #56302d",
"F  c #722917",
"G  c #72392c",
"H  c #46387b",
"J  c #69463f",
"K  c #48444c",
"L  c #4d525e",
"P  c #594248",
"I  c #5e5e58",
"U  c #434967",
"Y  c #4c417f",
"T  c #4b516d",
"R  c #595b66",
"E  c #515b7b",
"W  c #705955",
"Q  c #696a6f",
"!  c #676871",
"~  c #686270",
"^  c #686a73",
"/  c #786c69",
"(  c #727377",
")  c #3c2b81",
"_  c #3f2f80",
"`  c #453884",
"'  c #4d4089",
"]  c #514682",
"[  c #534790",
"{  c #594b91",
"}  c #565f82",
"|  c #5b5283",
" . c #5e548b",
".. c #5b5297",
"X. c #5c678c",
"o. c #645897",
"O. c #626480",
"+. c #6a638a",
"@. c #6c6197",
"#. c #6f649f",
"$. c #6a759e",
"%. c #736b8f",
"&. c #726997",
"*. c #7b7c83",
"=. c #777190",
"-. c #727b9d",
";. c #7a7398",
":. c #7d769b",
">. c #797e97",
",. c #6d79a7",
"<. c #776ca7",
"1. c #727fad",
"2. c #7c74ac",
"3. c #7078b3",
"4. c #72809e",
"5. c #7582b1",
"6. c #7785b5",
"7. c #7780ba",
"8. c #7883bb",
"9. c #7d8aba",
"0. c #7b89c0",
"q. c #7d8ac0",
"w. c #7f8cc1",
"e. c #7f8dc3",
"r. c #8b321d",
"t. c #883826",
"y. c #a4371b",
"u. c #a73c23",
"i. c #84555e",
"p. c #96605d",
"a. c #816a6b",
"s. c #817775",
"d. c #a75645",
"f. c #bc6351",
"g. c #b47b6e",
"h. c #c95237",
"j. c #e85b3c",
"k. c #c75b4b",
"l. c #c96c59",
"z. c #d37d6c",
"x. c #eb6e53",
"c. c #e07c66",
"v. c #827b9c",
"b. c #847aae",
"n. c #b8867c",
"m. c #d98e7d",
"M. c #ef8973",
"N. c #8a8484",
"B. c #8e8b8c",
"V. c #89859c",
"C. c #8f8c9d",
"Z. c #959495",
"A. c #979799",
"S. c #989898",
"D. c Gray60",
"F. c #9a9a9a",
"G. c #8983a2",
"H. c #848ebd",
"J. c #8b82b7",
"K. c #9289b8",
"L. c #9791af",
"P. c #9f9fa3",
"I. c #9d9aaa",
"U. c #9b93bc",
"Y. c #a69b98",
"T. c #ab9390",
"R. c #a996af",
"E. c #a09ab6",
"W. c #ba9caa",
"Q. c #a7a09e",
"!. c #b1a29f",
"~. c #bfa099",
"^. c #a2a3a7",
"/. c #a4a5aa",
"(. c #a7a9ae",
"). c #a9a8b5",
"_. c #adadb0",
"`. c #b9aaa7",
"'. c #b0adb6",
"]. c #b4b1be",
"[. c #808ec1",
"{. c #808ec2",
"}. c #808ec3",
"|. c #818fc5",
" X c #818fc8",
".X c #8290c5",
"XX c #8794c7",
"oX c #8392c8",
"OX c #8492ca",
"+X c #8593cb",
"@X c #8695cd",
"#X c #8894c6",
"$X c #8997ca",
"%X c #8a99d3",
"&X c #8d9bd0",
"*X c #9496c3",
"=X c #939cc6",
"-X c #929dca",
";X c #9b9ac4",
":X c #9da1cc",
">X c #a29bc1",
",X c #a6a1c5",
"<X c #a9a2c4",
"1X c #a9a3c8",
"2X c #a8aec2",
"3X c #a3aed5",
"4X c #a4a8d0",
"5X c #afb4c6",
"6X c #aab5d9",
"7X c #b1aacb",
"8X c #b8b7c2",
"9X c #b6b1d5",
"0X c #b3bad2",
"qX c #b1bedf",
"wX c #bbb5d3",
"eX c #b9bfd4",
"rX c #bbbcd9",
"tX c #aebee6",
"yX c #b9c1dc",
"uX c #bec6e3",
"iX c #d99586",
"pX c #cfa39a",
"aX c #c5aea8",
"sX c #d9ada3",
"dX c #ddbcb4",
"fX c #ed9a88",
"gX c #e69f91",
"hX c #f59883",
"jX c #e8a899",
"kX c #e1b4a9",
"lX c #efb9ac",
"zX c #c1bed4",
"xX c #c6c7bf",
"cX c #c7c5ce",
"vX c #cccacf",
"bX c #d3d3d3",
"nX c #d9d9dc",
"mX c #c3c9e3",
"MX c #d0cbe1",
"NX c #d8d6e4",
"BX c #dfdde8",
"VX c #e0e1dc",
"CX c Gray90",
"ZX c #e5e3ec",
"AX c #ecede6",
"SX c #ebebec",
"DX c #ebe9f1",
"FX c #f1f4e2",
"GX c #f5f9e7",
"HX c #f3f3f1",
"JX c #f8f7fb",
"KX c #fafbf6",
"LX c #fefffe",
"PX c None",
/* pixels */
"PXPXPXPXPXPXPXPXPXPXPXPXPXPXPXPXPXPXPXPXPXPXPXPXPXPXPXPXPXPXPXPXPXPXPXPXPXPXPXPXPXPXPXPXPXPXPXPX",
"PXPXPXPXPXPXPXPXPXPXPXPXPXPXPXPXPXPXPXPXPXPXPXPXPXPXPXPXPXPXPXPXPXPXPXPXPXPXPXPXPXPXPXPXPXPXPXPX",
"PXPXPXPXPXPXPXPXPXPXPXPXPXPXPXPXPXPXQ.!.aXsXjXfXfXfXfXfXgXpXpX~.!.Y.D.PXPXPXPXPXPXPXPXPXPXPXPXPX",
"PXPXPXPXPXPXPXPXPXPXPXPXPXPXPXPXQ.8XkXjXm.z.f.f.d.d.d.f.f.l.z.iXfXjX~.Y.PXPXPXPXPXPXPXPXPXPXPXPX",
"PXPXPXPXPXPXPXPXPXPXPXPXPXD.`.dXjXz.d.G G P W / s./ s./ a.W J G t.d.c.m.iXn.PXPXPXPXPXPXPXPXPXPX",
"PXPXPXPXPXPXPXPXPXPXPXPX`.lXgXl.G G W N.N.B.A.PXPXPXPXPXPXZ.B.N.s.W G h.x.M.m.T.PXPXPXPXPXPXPXPX",
"PXPXPXPXPXPXPXPXPXPXQ.aXlXl.F @ / N.Z.PXPXPXPXPXPXPXPXPXPXPXPXPXPXZ.N.J r.h.x.l.n.PXPXPXPXPXPXPX",
"PXPXPXPXPXPXPXPXPX`.lXhXu.S / D.PXPXPXPXPXPXPXPXPXPXPXPXPXPXPXPXPXPXPXD.B.d.j.x.x.g.PXPXPXPXPXPX",
"PXPXPXPXPXPXPXPX!.kXM.r.D N.P./.(./././././././././././././././././.(.(.^.B.u.r.G d.T./././.P.C.",
"PXPXPXPXPXPXPXQ.kXM.u.F C.yXuXuXyXyXyXyXyXyXyXyXyXyXyXyXyXyXyXuXmXuX2XA.*.L K t.h.h.p.yXuXmX;X%.",
"PXPXPXPXPXPXD.~.hXh.F ~ J.3.#XXXXXXXXXXXXXXX#XXXXXXX#X$X&X&XH.$.O.T 6 U ,..X&Xk.y.S P :X9XK...H ",
"PXPXPXPXPXD.P.hXx.u.D ] z ..q.|.e.e.e.e.e.[.e..XH..Xq.,.} R A A X.6.oX%XoX Xe.i.D *.1XK...` d 8 ",
"PXPXPXD.P./.W.d.F S @ u > [ 8.8.8.8.8.8.8.8.8.>.I 4 A 5 T $.e.@X+Xq.q.q.e.H.-XU.>Xb.{ z t d z f ",
"PXPXD.8XzXrXR.a.~ ( :.J.J.K.*X=X*X*X*X*X;X:X:XR   L :X3X3X9X4X4X4X4X4X4XH.K.U.2.[ g u z b z V z ",
"PXPXP.mX0X3X6X6XtXtXqXqXqX6X6X6X6X6X6X6X6X6X6X=X-.4XtX3X6X3X3X4X3X3X3X4.] ' ` d u d z z z b z z ",
"PXPX(.3Xe.e.e.e.e.e.e.e.0.e.0.e.0.e.0.e.0.0.0. X%X X0.0.0.0.0.0.0. X,., 9 ..t z z b z b b z z ) ",
"PXD.0X&X0.e.e.e.e.e.e.e.e.e.e.e.e.e.e.e.e.|.[.[.e.[.[.[.|.|.[.|.|.+XE % _ 7.` z z V z z z z _ z ",
"PX/.6X+Xe.[.[.|.[.[.[.[.|.[.[.|.[.[.[.|.[.[.[.|.|.[.|.[.[.[.[.[..Xe.6 3 ) 9...g Z z z _ ) z 8 + ",
"PX5X3Xq.[.[.[.[.[.|.[.|.[.[.|.[.|.[.[.|.[.|.|.[.[.[.|.|.[.[.|.[.+X$.< t z 8.3.z Z ) _ d % O o # ",
"D.yX-Xe.[.[.|.[.[.[.[.|.[.|.[.[.[.|.[.[.[.|.[.[.|.[.[.[.|.|.[..X+XR 3 z z 9..X' z g % . + A A ! ",
"_.3X.Xe.[.[.[.[.[.[.[.[.[.[.[.[.[.[.[.[.[.[.[.[.[.[.[.[.[.[.[.oX6.6 0 b z 8.XX..O   + A $.[.X.^ ",
"eX3XoX@X+X+X+X+X+X+X+X+X+X+X+X+X+X+X+X+X+X+X+X+X+X+X+X+X+X+X@X%XX.2 g z z 8.oX7.< U ,.oX%XoX} ^ ",
"tX9.5.5.5.5.5.5.5.5.5.5.5.5.5.5.5.5.5.5.5.5.5.5.5.5.5.5.5.5.6.1.A 3 z b z 8..Xe.6.[.@XoX.Xe.} ^ ",
"E 6 5 5 5 5 5 5 5 5 5 5 5 5 5 5 5 5 5 5 5 5 5 5 5 5 5 5 5 5 5 1 # f z b z 8..X[.oXoX[.[..Xe.} ^ ",
"*.s.*.~ Y 8 7 9 9 9 9 9 9 9 9 9 9 9 9 9 9 9 9 9 9 9 9 9 9 9 9 7 0 b z b b 8..X[.[.[.|.[..Xe.} ^ ",
"PXPXZ.b.{ z z z V z z z z V V z z z V z z z V z z z z z V z z z z b z b z 8..X[.|.|.[.[..Xe.} ^ ",
"PXPXA.:.{ b z z z b z b z z V z z V V z z V z b z z z V z V V z b z b j z 8..X[.[.|.[.|..X9.} ^ ",
"PXPXA.:.{ b b b b z b z V z z V V z z z V z b z z V V z z z V z z b z j b 8..X[.[.[.[.[..Xe.} ^ ",
"PXPXA.:.{ b j z z b z b z b z b z z z b z b z b z b z b V b z b b z b b z 8..X|.|.|.[.|..Xe.} ^ ",
"PXPXA.:.{ b b z b z b z b z b z z V b z b z b z b z b z z z b z z b z b z 8..X[.[.[.[.[..Xe.} ^ ",
"PXPXA.:.{ b b b z b z b z b z b z b z b z b z b z b z b z b z b b z z b z 8..X[.[.|.|.[..Xe.} ^ ",
"PXPXZ.:.{ b b z b z b z b z b z b z b z b z b z b z b z b z b z z b z b z 8..X|.[.[.|.[..Xe.} ^ ",
"PXPXA.:.{ b b z b d d d d d z z z d d d d b z z b d d d z z b d d d b b z 8..X[.[.[.|.[..Xe.} ^ ",
"PXPXA.:.{ b b z d z z Z z d d z d z z z d d d z z b z b z z d z b z b j z 8..X.X|.[.[.[..Xe.} ^ ",
"PXPXA.:.{ b d Z 2.<X<X<X,XJ.[ > [ K.>XU.U.<.Z d <.E.,X#.u d d 2.>X<Xo.u z 8..X|.[.[.|.|..Xe.} ^ ",
"PXPXA.:.{ z > ' BXLXvXvXHXLX7X; J.LXBXbXKXLXb.b NXLXLXE.> : [ DXLXLX@.d z 8..X[.[.|.[.[..Xe.} ^ ",
"PXPXA.:.{ z > o.HXW.h & b.JX].q 7XSX .q K.LXE.[ JXNXcXL.> - 7XDXHX8X` d z 8..X[.[.[.[.|..Xe.} ^ ",
"PXPXA.:.{ z > <.KXU.= $ K.VX=.; MXCXC & K.GX%.2.LXL.8X9X- ..ZX7XBX'._ d z 8..X[.|.|.[.[..Xe.} ^ ",
"PXPXA.:.{ d d J.LXNX7XwXZXC.h _ DXJX<X7XCX(.H K.AX&.zXzXg 7XxX#.SXI.b d z 8..X[.[.|.[.|..Xe.} ^ ",
"PXPXA.:.{ t Z zXHX'.8XSXKXb.& #.JXbX8XcXZ.Y d wXnX] wXNXb.nX@.b.HXv.d z z 8..X[.[.[.[.[..X9.} ^ ",
"PXPXA.:.{ y [ BXvXH ; b.KXI.* K.KX;.` H C > ' ZX].d 7XHXBXE.t 9XAX .d d z 8..X[.|.[.[.[.oX XX.^ ",
"PXPXA.:.{ y o.JX).e $ 2.KXL.* wXAX| > d d d #.LXG.: 1XLXbX| d BXbXY d b z 8..X[.|.[. X@X@X5.U ! ",
"PXPXA.:.{ u b.GXV.d - J.FXv.z bXxXY z z z d K.FX+.: >XFXC.; { CX_.Z z b z 8..Xe.oX+X.X,.E 5 4 ( ",
"PXPXA.:.{ z @.C.| z u o.V.| ` G.=.H z z z z #.V.Y y o.V.] > [ C.+.Z z z z 0.+X+Xe.$.T 1 K ( B.A.",
"PXPXA.:...z z z z ) _ z z z _ z z _ ) ) ) _ z z ) ) z d ) ) ) z z _ ) z ) 8.9.X.A # L *.Z.D.PXPX",
"PXPXA.;.' w w e e f e e e e e e e e e f e f e e e f e e e f e e e f e 0 0 E 6 4 R B.Z.PXPXPXPXPX",
"PXPXA.| O X o o o o o o o o o o o o o o o o o o o o o o o o o o o o o X X 4 Q Z.D.PXPXPXPXPXPXPX",
"PXPXPXPXPXPXPXPXPXPXPXPXPXPXPXPXPXPXPXPXPXPXPXPXPXPXPXPXPXPXPXPXPXPXPXPXPXPXPXPXPXPXPXPXPXPXPXPX"
};
