/* XPM */
static char *magick[] = {
/* columns rows colors chars-per-pixel */
"16 16 207 2",
"   c #2f1c75",
".  c #2f1f77",
"X  c #2d1a7b",
"o  c #301f77",
"O  c #2d2063",
"+  c #322662",
"@  c #332762",
"#  c #30206c",
"$  c #332962",
"%  c #342963",
"&  c #352a63",
"*  c #352b63",
"=  c #352a64",
"-  c #352b64",
";  c #362b64",
":  c #382d65",
">  c #322270",
",  c #332371",
"<  c #302077",
"1  c #332174",
"2  c #352474",
"3  c #302078",
"4  c #312078",
"5  c #332279",
"6  c #332379",
"7  c #352378",
"8  c #352379",
"9  c #35257d",
"0  c #37267f",
"q  c #3a2978",
"w  c #39297c",
"e  c #3a297e",
"r  c #3b2a7e",
"t  c #3b2a7f",
"y  c #3b2b7e",
"u  c #3b2b7f",
"i  c #3d2d7e",
"p  c #3d2d7f",
"a  c #37306b",
"s  c #3c3a6c",
"d  c #4d3b72",
"f  c #484c73",
"g  c #4c4c71",
"h  c #4c507e",
"j  c #5b5e6c",
"k  c #555d7d",
"l  c #555c7f",
"z  c #62656f",
"x  c #3e2d80",
"c  c #3e2f84",
"v  c #433283",
"b  c #4a3b88",
"n  c #483c8f",
"m  c #4c3d8b",
"M  c #4b468b",
"N  c #4c4987",
"B  c #564888",
"V  c #5d4f95",
"C  c #545a84",
"Z  c #555b86",
"A  c #565d88",
"S  c #57579e",
"D  c #5a5591",
"F  c #5a5aa0",
"G  c #5c5ba0",
"H  c #62568f",
"J  c #6a5c8e",
"K  c #625497",
"L  c #625694",
"P  c #645596",
"I  c #655996",
"U  c #6a5e99",
"Y  c #695d9c",
"T  c #6b5f9c",
"R  c #636e92",
"E  c #666f91",
"W  c #6d629e",
"Q  c #6d769e",
"!  c #736e85",
"~  c #756a9b",
"^  c #7b7591",
"/  c #7d7797",
"(  c #7f7999",
")  c #6161a4",
"_  c #6262a4",
"`  c #6262a7",
"'  c #6363aa",
"]  c #6464ac",
"[  c #6d78a1",
"{  c #6d78a2",
"}  c #6f78a0",
"|  c #6e78a3",
" . c #6d79a6",
".. c #7266a1",
"X. c #746aa3",
"o. c #796fa4",
"O. c #796ea7",
"+. c #737ea9",
"@. c #7b70a5",
"#. c #7c73a3",
"$. c #7d73a6",
"%. c #7881aa",
"&. c #7a84aa",
"*. c #7e87ae",
"=. c #7681b0",
"-. c #7e8dbb",
";. c #7d8dbd",
":. c #7d87c6",
">. c #7989c2",
",. c #7e8cc1",
"<. c #7e8dc2",
"1. c #7f8dc3",
"2. c #a83a1e",
"3. c #a14b38",
"4. c #8c4f4a",
"5. c #956356",
"6. c #9c695d",
"7. c #9f776e",
"8. c #a06b5f",
"9. c #ad7b6f",
"0. c #c1715e",
"q. c #876c83",
"w. c #8c7980",
"e. c #807a98",
"r. c #817b99",
"t. c #817c99",
"y. c #847e9c",
"u. c #857cab",
"i. c #877fab",
"p. c #867daf",
"a. c #877dae",
"s. c #ab8175",
"d. c #be8071",
"f. c #838385",
"g. c #96898a",
"h. c #9d8d8c",
"j. c #939293",
"k. c #949293",
"l. c #989898",
"z. c #999898",
"x. c Gray60",
"c. c #9e9c9b",
"v. c #9c9c9e",
"b. c #8a82ac",
"n. c #848cb3",
"m. c #838eb8",
"M. c #8c83b0",
"N. c #928cb0",
"B. c #9293a4",
"V. c #9993b7",
"C. c #aa9895",
"Z. c #be9085",
"A. c #b1999a",
"S. c #bc9f98",
"D. c #aba3a1",
"F. c #a7a2be",
"G. c #a3a8bc",
"H. c #a5aeb8",
"J. c #b1a1a7",
"K. c #838ec5",
"L. c #848fc4",
"P. c #8190c5",
"I. c #8190c7",
"U. c #8292c4",
"Y. c #8492c5",
"T. c #8494c7",
"R. c #8594c7",
"E. c #8091c9",
"W. c #8291c8",
"Q. c #8493c9",
"!. c #8493ca",
"~. c #8594c9",
"^. c #8695ca",
"/. c #8697ca",
"(. c #8797cb",
"). c #8594cc",
"_. c #8a94c5",
"`. c #8f99c7",
"'. c #8998ce",
"]. c #8a99ce",
"[. c #8b9ad4",
"{. c #959ac4",
"}. c #909bc8",
"|. c #939dcb",
" X c #949ecd",
".X c #95a0c8",
"XX c #99a4d3",
"oX c #a8a2c0",
"OX c #aaa3c1",
"+X c #aba4c2",
"@X c #aba6c0",
"#X c #aba6c3",
"$X c #aca7c1",
"%X c #abafc1",
"&X c #b0aac3",
"*X c #b4afc9",
"=X c #b0b7c9",
"-X c #b5b0c9",
";X c #b0b9c7",
":X c #b1b8c8",
">X c #b2b9cc",
",X c #b4bbcd",
"<X c #d59f8f",
"1X c #c4a79f",
"2X c #c9c6d5",
"3X c #d1cedc",
"4X c None",
/* pixels */
"4X4X4X4XD.S.s.6.5.8.9.Z.C.4X4X4X",
"4X4Xc.1X7.g.j.x.4Xx.k.h.0.d.4X4X",
"4X4X<X4.B.;X,X>X=X=X:XH.w.2.A.G.",
"v.J.3.d :.L.K.%.E Q } =.Y.q.J m ",
"%X{.n._.`.}. X*.&.|.XXm.D n 9 9 ",
".X>.E.P.,.,.,.P.E.,.T.h M c 1 O ",
"].Q.^.^.^.^.^.^.^.].-.a ' N s k ",
"k Z Z Z Z Z C C Z A f # ` ;.^.+.",
"! q , , , , , , , , 2 7 ` ^.^.} ",
"y.x t t t t t t t t t 7 ` T.E.} ",
"r.i 5 5 5 5 o 5 . t 1 . ` T.Q.} ",
"r.t X.M.K W p.V p.i O.K G ^.E.} ",
"( b -XV.N.#X#XF.2XU 3X~ S T.Q.} ",
"/ Y $XOXi.&XH b.#X*XF.B F ^.[. .",
"( ..K Y i.I X @.O.#.$.v ] P.R j ",
"^ * * ; = * : * $ + = + g z f.4X"
};
